<svg version="1.2" baseProfile="tiny-ps" xmlns="http://www.w3.org/2000/svg" viewBox="0 0 32 32" width="256" height="256">
	<title>play_vr-svg</title>
	<style>
		tspan { white-space:pre }
		.s0 { fill: #ffffff } 
	</style>
	<path id="Layer" fill-rule="evenodd" class="s0" d="m30 14v7c0 0.6-0.4 1-1 1h-2c0 1.7-1.3 3-3 3h-4.1c-0.8 0-1.5-0.3-2.1-0.9l-1.2-1.2c-0.4-0.4-1-0.4-1.4 0l-1.2 1.2c-0.5 0.6-1.3 0.9-2.1 0.9h-3.9c-1.7 0-3-1.3-3-3h-2c-0.6 0-1-0.4-1-1v-7c0-0.6 0.4-1 1-1h2c0-1.7 1.3-3 3-3h16c1.7 0 3 1.3 3 3h2c0.6 0 1 0.4 1 1zm-8 1c0-0.6-0.4-1-1-1h-10c-0.6 0-1 0.4-1 1c0 0.6 0.4 1 1 1h10c0.6 0 1-0.4 1-1z" />
</svg>